# xmcd
#
# Track frame offsets:
#	150
#	15140
#	25268
#	37433
#	48548
#	61258
#	71488
#	87795
#	99345
#	113787
#	127635
#	137189
#
# Disc length: 2057 seconds
#
# Revision: 1
# Processed by: cddbd v1.5.2PL0 Copyright (c) Steve Scherf et al.
# Submitted via: audiograbber 1.83.01
#
DISCID=9608070c
DTITLE=Lorne Greene - Portrait Of The West
DYEAR=1966
DGENRE=Western
TTITLE0=The Search
TTITLE1=Dig, Dig, Dig, Dig (There's No More Water In The Well)
TTITLE2=Ol' Cyclone
TTITLE3=Twilight On The Trail
TTITLE4=Geronimo
TTITLE5=Mule Train
TTITLE6=I'm A Gun
TTITLE7=Gunslinger's Prayer
TTITLE8=Nellie Cole
TTITLE9=Home On The Range
TTITLE10=Virginia Town
TTITLE11=The Place Where I Worship
EXTD=
EXTT0=
EXTT1=
EXTT2=
EXTT3=
EXTT4=
EXTT5=
EXTT6=
EXTT7=
EXTT8=
EXTT9=
EXTT10=
EXTT11=
PLAYORDER=
